<?xml version="1.0" encoding="UTF-8"?>
<svg id="Layer_2" data-name="Layer 2" xmlns="http://www.w3.org/2000/svg" xmlns:xlink="http://www.w3.org/1999/xlink" viewBox="0 0 106 82">
  <defs>
    <style>
      .cls-1 {
        clip-path: url(#clippath);
      }

      .cls-2 {
        fill: none;
      }

      .cls-2, .cls-3 {
        stroke-width: 0px;
      }

      .cls-3 {
        fill: #222;
      }
    </style>
    <clipPath id="clippath">
      <rect class="cls-2" width="106" height="82"/>
    </clipPath>
  </defs>
  <g id="Layer_1-2" data-name="Layer 1">
    <g class="cls-1">
      <g>
        <path class="cls-3" d="m10.63,3.65L.05,5.14v3.34s3.46-.49,3.46-.49l-.03,19.78,3.61-.5.03-19.78,3.5-.5v-3.34Z"/>
        <path class="cls-3" d="m23.73,1.8l-3.6.51-.02,10.26-3.58.5.02-10.27-3.61.51-.04,23.12,3.6-.5.02-10.7,3.58-.5-.02,10.7,3.6-.51.04-23.12Z"/>
        <path class="cls-3" d="m36.56,0l-9.52,1.34-.04,23.12,9.79-1.37v-3.35l-6.19.87.02-7.38,5.12-.72v-2.15l-5.11.72v-6.89s5.93-.84,5.93-.84V0Z"/>
        <path class="cls-3" d="m5.71,31.19c-3.12.44-5.2,3.11-5.2,6.34,0,6.42,7.15,4.72,7.14,10.48,0,1.89-.79,3.25-2.02,3.42-1.07.15-1.88-1.48-2.12-4.27l-3.5,1.24c.37,4.42,2.46,6.92,5.61,6.48,3.36-.47,5.63-3.35,5.63-6.76,0-6.31-7.23-4.59-7.22-10.47,0-1.72.65-2.89,1.65-3.03,1-.14,1.72,1.42,1.93,4l3.48-1.24c-.37-4.2-2.35-6.64-5.37-6.22"/>
        <path class="cls-3" d="m16.94,46.33l1.4-11.65.27-.04,1.35,11.26-3.01.42m4.15-17.01l-5.22.73-3.43,23.6,3.69-.52.54-4.61,3.52-.5.53,4.46,3.71-.52-3.35-22.64"/>
        <path class="cls-3" d="m37.64,26.98l-3.52.5.16,15.07-.28.04-3.82-14.56-3.44.49-.04,23.12,3.55-.5-.19-15.07.27-.03,3.85,14.55,3.42-.49.04-23.12Z"/>
        <path class="cls-3" d="m44.52,45.79l.03-16.44.54-.07c2.15-.3,3.55,2.79,3.53,7.76,0,4.91-1.41,8.37-3.56,8.68l-.54.07Zm.44-19.84l-4.01.56-.04,23.12,4.01-.56c4.44-.63,7.41-5.64,7.42-12.56.02-6.92-2.94-11.19-7.37-10.56"/>
        <path class="cls-3" d="m72.83,22.03l-3.79.54-1.83,18.08-.28.04-1.58-17.6-3.99.56-1.67,18.05-.27.04-1.77-17.57-3.77.53,2.7,22.74,5-.71,1.62-18.83.27-.04,1.71,18.37,4.81-.68,2.82-23.51Z"/>
        <path class="cls-3" d="m78.83,21.19l-3.61.51-.05,23.12,3.61-.51.05-23.12Z"/>
        <path class="cls-3" d="m87.33,19.7c-3.47.49-5.82,5.56-5.83,12.69,0,7.12,2.32,11.51,5.81,11.01,2.72-.38,4.95-3.66,5.55-8.2l-3.47-.27c-.32,2.9-1.14,4.87-2.08,5-1.27.18-2.12-3.05-2.11-8.08,0-5.06.88-8.53,2.11-8.7.86-.12,1.66,1.57,1.98,4.23l3.48-1.24c-.61-4.25-2.78-6.81-5.45-6.44Z"/>
        <path class="cls-3" d="m106,17.36l-3.6.51-.02,10.26-3.58.5.02-10.26-3.61.5-.05,23.12,3.61-.51.02-10.7,3.57-.5-.02,10.7,3.6-.51.04-23.12Z"/>
        <path class="cls-3" d="m6.17,58.27c-3.47.49-5.82,5.55-5.83,12.68-.02,7.12,2.31,11.51,5.81,11.01,2.72-.38,4.95-3.66,5.55-8.2l-3.47-.27c-.32,2.9-1.14,4.87-2.08,5-1.27.18-2.12-3.04-2.11-8.08,0-5.03.88-8.52,2.11-8.7.86-.12,1.66,1.57,1.98,4.23l3.48-1.24c-.61-4.25-2.78-6.81-5.45-6.44"/>
        <path class="cls-3" d="m17.65,56.94l-3.61.51-.04,23.12,9.26-1.3v-3.35s-5.64.8-5.64.8l.03-19.78Z"/>
        <path class="cls-3" d="m35.98,54.36l-3.6.5-.03,17.71c0,1.4-.65,2.33-1.78,2.49-1.13.16-1.8-.59-1.8-1.98l.03-17.71-3.61.5-.03,17.92c0,3.46,1.98,5.21,5.4,4.73,3.42-.48,5.38-2.79,5.39-6.25l.03-17.92"/>
        <path class="cls-3" d="m42.78,73.17l.02-7.36,1.29-.18c2.05-.28,3.26.91,3.25,3.24,0,2.33-1.16,3.83-3.16,4.11l-1.4.2Zm.02-9.51l.02-6.92.86-.12c1.99-.28,3.14.81,3.14,2.98s-1.16,3.65-3.15,3.94l-.86.12m1.07-10.42l-4.65.66-.04,23.12,5.19-.73c4.22-.59,6.71-3.33,6.71-7.31,0-3.08-1.88-4.59-4.51-4.81v-.29c2.27-1.05,3.99-2.98,3.99-5.62,0-3.75-2.46-5.61-6.69-5.02"/>
      </g>
    </g>
  </g>
</svg>